<svg width="50" height="50" fill="none" xmlns="http://www.w3.org/2000/svg"><circle cx="25" cy="25" r="25" fill="#fff"/><path d="M23.688 32.813c-.613-.46-1.5-.025-1.5.75v.857a40.978 40.978 0 01-2.23-.177c-6.093-.628-8.083-2.113-8.083-2.555 0-.135.411-.772 2.41-1.437a.935.935 0 00.721-.913c0-.617-.647-1.082-1.235-.892-2.502.82-3.771 1.91-3.771 3.242 0 3.082 6.83 4.117 9.76 4.42.775.085 1.589.147 2.427.192v1.013c0 .775.888 1.208 1.5.75l2.5-1.875a.939.939 0 000-1.5l-2.5-1.875zm12.534-4.367a.937.937 0 10-.581 1.784c2.027.66 2.484 1.29 2.484 1.459 0 .554-2.572 2.097-8.935 2.629a.938.938 0 00.156 1.868C32.548 35.916 40 34.943 40 31.688c0-1.334-1.272-2.425-3.778-3.242zM25 12l8.75 3.75L25 19.5l-8.75-3.75L25 12zm1.25 9.684v7.28l7.5-3.214v-7.28l-7.5 3.214zm-2.5 0l-7.5-3.214v7.28l7.5 3.214v-7.28z" fill="#319F1C"/></svg>