<svg width="10" height="10" fill="none" xmlns="http://www.w3.org/2000/svg"><g clip-path="url(#clip0)"><path d="M7.813 3.75H7.5V2.5C7.5 1.121 6.379 0 5 0a2.503 2.503 0 00-2.5 2.5v1.25h-.313a.939.939 0 00-.937.938v4.375c0 .517.42.937.938.937h5.624c.517 0 .938-.42.938-.938V4.689a.939.939 0 00-.938-.938zM3.332 2.5c0-.92.748-1.667 1.667-1.667.92 0 1.667.748 1.667 1.667v1.25H3.333V2.5zm2.084 4.468v.949a.417.417 0 11-.834 0v-.95A.83.83 0 015 5.418a.83.83 0 01.417 1.55z" fill="#000"/></g><defs><clipPath id="clip0"><path fill="#fff" d="M0 0h10v10H0z"/></clipPath></defs></svg>