<svg width="28" height="24" fill="none" xmlns="http://www.w3.org/2000/svg"><path fill-rule="evenodd" clip-rule="evenodd" d="M5.385 8.64l-1.218.465-.4.152c-.417.137-.825.329-1.242.481-.528.184-1.553.553-1.553 1.233 0 .521.536.617.913.73l5.294 1.625c.929.28.68.352 1.17.064.88-.536 1.737-1.121 2.618-1.65l2.299-1.441c.232-.144.424-.28.664-.425l8.194-5.158c.216-.128.456-.312.72-.296.641.032.153.529-.088.72-.328.265-.64.585-.953.858l-2.41 2.21-.016.016-1.858 1.706c-.36.369-1.058.913-1.434 1.298l-.232.224-1.45 1.313c-.352.353-.873.761-1.185 1.082l-.24.224-.705.649c-.513.52-.785.464-.777 1.081 0 .36-.177 2.098-.209 2.515-.072.865-.096 1.682-.184 2.547-.032.272-.064.528-.064.849.721-.024 1.314-.641 1.794-1.114.152-.16.304-.328.473-.472l.128-.112.993-.97.016-.015c.248-.225.593-.625.825-.785l.889.657c.52.424 1.602 1.177 2.186 1.617l3.028 2.25c.232.161.769.377 1.137.377.257 0 .449-.12.6-.24.153-.128.257-.312.345-.497.233-.464.801-3.427.921-4.044.024-.12.064-.24.08-.337L26.705 7.44c.168-.672.256-1.377.44-2.074l.145-.657c.12-.672.536-2.234.536-2.755 0-.697-.352-1.433-1.121-1.433-.56 0-1.938.656-2.547.88l-.408.145-1.242.48-.4.152-7.345 2.836-.4.16-1.634.633c-.272.12-.553.192-.817.304L7.827 7.688l-.4.16c-.665.288-1.354.528-2.042.793z" fill="#319F1C"/></svg>