<svg width="25" height="27" fill="none" xmlns="http://www.w3.org/2000/svg"><path fill-rule="evenodd" clip-rule="evenodd" d="M4.546 20.204c.475.255 1.855.79 1.922 1.039l.02 4.971c.503-.054 1.206-1.112 1.508-1.447 3.752-4.228 2.117-2.566 7.135-3.095 1.313-.141 2.52-.295 3.806-.677 1.447-.429 2.9-1.166 3.678-2.245 2.284-3.188 2.17-8.642 1.42-12.468-.456-2.338-1.749-3.96-3.946-4.957C17.583.179 12.753-.243 9.678.185 6.75.596 3.44 1.607 2.013 4.387.747 6.872.58 11.656 1.11 14.778c.388 2.284 1.433 4.334 3.437 5.426zm4.435-6.016C7.406 12.5 5.859 10.155 5.015 7.877c-.623-1.682.227-3.23 2.056-3.672.664-.16 1.052.175 1.42.55.329.335.664.723.945 1.119.282.388.59.837.804 1.253.912 1.755-.455 1.695-.971 2.532-.71 1.16 1.186 3.29 1.916 3.906.516.429 1.996 1.48 2.807 1.22.456-.155.684-.724 1.045-1.026.999-.837 2.104.174 2.834.67.422.295.744.55 1.153.871.408.329.797.704.75 1.287-.087 1.051-1.829 2.994-3.45 2.512-.824-.248-2.037-.891-2.76-1.327-1.79-1.058-3.263-2.184-4.583-3.584zm4-7.651c-.389-.134-.355-.663 0-.764.475-.14 1.721.275 2.076.442 1.14.556 2.084 1.468 2.5 2.687.127.382.502 1.976-.027 2.124-.523.14-.51-.329-.55-.704-.1-.931-.469-2.057-1.186-2.686-1.025-.918-2.358-.938-2.814-1.099zm.402 1.762c-.175-.12-.141-.422-.02-.563.3-.341 1.514-.134 2.264.945.368.522.864 1.91-.188 1.762-.422-.543-.067-1.253-1.005-1.796-.321-.187-.904-.24-1.051-.348zm-1.2-3.725c-.12-.181-.013-.482.201-.583.248-.134 1.434.047 1.722.114 2.338.516 4.248 2.251 5.112 4.495.174.45.79 2.908.194 3.123-.69.247-.576-.77-.643-1.213-.1-.596-.2-1.005-.368-1.561-.818-2.767-2.875-3.705-5.454-4.167-.234-.047-.623 0-.764-.208z" fill="#319F1C"/></svg>